<svg xmlns="http://www.w3.org/2000/svg" width="151" height="19" viewBox="0 0 151 19" fill="none">
  <g clip-path="url(#clip0_196_708)">
    <path d="M5.50485 4.96187V7.45698H22.5369V11.444H5.50485V18.4633H0V0.460449H23.0004V4.96187H5.50485Z" fill="black"/>
    <path d="M35.5389 13.959H53.3416V18.432L30.0312 18.4576V0.460449H53.3416V4.96187H35.5389V7.45698H52.8809V11.4668H35.5389V13.9619V13.959Z" fill="black"/>
    <path d="M88.188 0.460449L77.8578 18.4604H70.2062L59.8789 0.460449H66.8311L74.0164 13.0099L81.2045 0.460449H88.188Z" fill="black"/>
    <path d="M100.141 13.959H117.943V18.432L94.6328 18.4576V0.460449H117.943V4.96187H100.141V7.45698H117.483V11.4668H100.141V13.9619V13.959Z" fill="black"/>
    <path d="M150.259 16.9685V18.4604H144.805V14.1665H131.427V18.4604H125.922V0.460449H142.388C149.437 0.460449 150.262 1.07712 150.262 7.30068C150.262 9.97482 149.619 10.8757 148.126 11.5946C149.619 12.3648 150.262 12.7001 150.262 16.9685H150.259ZM144.779 4.95903H131.427V9.66506H144.779V4.96187V4.95903Z" fill="black"/>
  </g>
  <defs>
    <clipPath id="clip0_196_708">
      <rect width="150.258" height="18" fill="black" transform="translate(0 0.460449)"/>
    </clipPath>
  </defs>
</svg>